<mxfile host="app.diagrams.net" modified="2021-04-30T03:30:09.743Z" agent="5.0 (Macintosh; Intel Mac OS X 10_15_7) AppleWebKit/537.36 (KHTML, like Gecko) Chrome/90.0.4430.93 Safari/537.36" etag="uTuuN6sUGIA4PSWpuZIm" version="14.6.6" type="github">
  <diagram id="yB_TVjthiijMV85t6qQj" name="第 1 页">
    <mxGraphModel dx="1437" dy="1028" grid="1" gridSize="10" guides="1" tooltips="1" connect="1" arrows="1" fold="1" page="1" pageScale="1" pageWidth="827" pageHeight="1169" math="0" shadow="0">
      <root>
        <mxCell id="0" />
        <mxCell id="1" parent="0" />
        <mxCell id="iHlx-0HnK2ta-YtyEYJR-1" value="放箱下单流程" style="text;html=1;strokeColor=none;fillColor=none;align=center;verticalAlign=middle;whiteSpace=wrap;rounded=0;" vertex="1" parent="1">
          <mxGeometry x="330" y="60" width="140" height="60" as="geometry" />
        </mxCell>
        <mxCell id="iHlx-0HnK2ta-YtyEYJR-2" value="集港下单流程" style="text;html=1;strokeColor=none;fillColor=none;align=center;verticalAlign=middle;whiteSpace=wrap;rounded=0;" vertex="1" parent="1">
          <mxGeometry x="830" y="60" width="140" height="60" as="geometry" />
        </mxCell>
        <mxCell id="iHlx-0HnK2ta-YtyEYJR-7" value="" style="edgeStyle=orthogonalEdgeStyle;rounded=0;orthogonalLoop=1;jettySize=auto;html=1;" edge="1" parent="1" source="iHlx-0HnK2ta-YtyEYJR-3" target="iHlx-0HnK2ta-YtyEYJR-6">
          <mxGeometry relative="1" as="geometry" />
        </mxCell>
        <mxCell id="iHlx-0HnK2ta-YtyEYJR-3" value="开始" style="ellipse;whiteSpace=wrap;html=1;" vertex="1" parent="1">
          <mxGeometry x="365" y="140" width="70" height="60" as="geometry" />
        </mxCell>
        <mxCell id="iHlx-0HnK2ta-YtyEYJR-9" value="" style="edgeStyle=orthogonalEdgeStyle;rounded=0;orthogonalLoop=1;jettySize=auto;html=1;" edge="1" parent="1" source="iHlx-0HnK2ta-YtyEYJR-5" target="iHlx-0HnK2ta-YtyEYJR-8">
          <mxGeometry relative="1" as="geometry" />
        </mxCell>
        <mxCell id="iHlx-0HnK2ta-YtyEYJR-5" value="开始" style="ellipse;whiteSpace=wrap;html=1;" vertex="1" parent="1">
          <mxGeometry x="860" y="130" width="70" height="60" as="geometry" />
        </mxCell>
        <mxCell id="iHlx-0HnK2ta-YtyEYJR-11" value="" style="edgeStyle=orthogonalEdgeStyle;rounded=0;orthogonalLoop=1;jettySize=auto;html=1;" edge="1" parent="1" source="iHlx-0HnK2ta-YtyEYJR-6">
          <mxGeometry relative="1" as="geometry">
            <mxPoint x="400" y="390" as="targetPoint" />
          </mxGeometry>
        </mxCell>
        <mxCell id="iHlx-0HnK2ta-YtyEYJR-6" value="选择订单信息&lt;br&gt;获取价格金额price" style="whiteSpace=wrap;html=1;" vertex="1" parent="1">
          <mxGeometry x="340" y="270" width="120" height="60" as="geometry" />
        </mxCell>
        <mxCell id="iHlx-0HnK2ta-YtyEYJR-14" style="edgeStyle=orthogonalEdgeStyle;rounded=0;orthogonalLoop=1;jettySize=auto;html=1;exitX=0.5;exitY=1;exitDx=0;exitDy=0;entryX=0.5;entryY=0;entryDx=0;entryDy=0;" edge="1" parent="1" source="iHlx-0HnK2ta-YtyEYJR-8" target="iHlx-0HnK2ta-YtyEYJR-12">
          <mxGeometry relative="1" as="geometry" />
        </mxCell>
        <mxCell id="iHlx-0HnK2ta-YtyEYJR-8" value="&lt;meta charset=&quot;utf-8&quot;&gt;&lt;span style=&quot;color: rgb(0, 0, 0); font-family: helvetica; font-size: 12px; font-style: normal; font-weight: 400; letter-spacing: normal; text-align: center; text-indent: 0px; text-transform: none; word-spacing: 0px; background-color: rgb(248, 249, 250); display: inline; float: none;&quot;&gt;选择订单信息&lt;/span&gt;&lt;br style=&quot;color: rgb(0, 0, 0); font-family: helvetica; font-size: 12px; font-style: normal; font-weight: 400; letter-spacing: normal; text-align: center; text-indent: 0px; text-transform: none; word-spacing: 0px; background-color: rgb(248, 249, 250);&quot;&gt;&lt;span style=&quot;color: rgb(0, 0, 0); font-family: helvetica; font-size: 12px; font-style: normal; font-weight: 400; letter-spacing: normal; text-align: center; text-indent: 0px; text-transform: none; word-spacing: 0px; background-color: rgb(248, 249, 250); display: inline; float: none;&quot;&gt;获取价格金额price&lt;/span&gt;" style="whiteSpace=wrap;html=1;" vertex="1" parent="1">
          <mxGeometry x="835" y="270" width="120" height="60" as="geometry" />
        </mxCell>
        <mxCell id="iHlx-0HnK2ta-YtyEYJR-18" style="edgeStyle=orthogonalEdgeStyle;rounded=0;orthogonalLoop=1;jettySize=auto;html=1;exitX=0;exitY=0.5;exitDx=0;exitDy=0;" edge="1" parent="1" source="iHlx-0HnK2ta-YtyEYJR-12">
          <mxGeometry relative="1" as="geometry">
            <mxPoint x="770" y="500" as="targetPoint" />
          </mxGeometry>
        </mxCell>
        <mxCell id="iHlx-0HnK2ta-YtyEYJR-19" style="edgeStyle=orthogonalEdgeStyle;rounded=0;orthogonalLoop=1;jettySize=auto;html=1;exitX=1;exitY=0.5;exitDx=0;exitDy=0;entryX=0.5;entryY=0;entryDx=0;entryDy=0;" edge="1" parent="1" source="iHlx-0HnK2ta-YtyEYJR-12" target="iHlx-0HnK2ta-YtyEYJR-17">
          <mxGeometry relative="1" as="geometry" />
        </mxCell>
        <mxCell id="iHlx-0HnK2ta-YtyEYJR-12" value="选择支付方式？" style="rounded=0;whiteSpace=wrap;html=1;" vertex="1" parent="1">
          <mxGeometry x="835" y="380" width="120" height="60" as="geometry" />
        </mxCell>
        <mxCell id="iHlx-0HnK2ta-YtyEYJR-21" value="" style="edgeStyle=orthogonalEdgeStyle;rounded=0;orthogonalLoop=1;jettySize=auto;html=1;" edge="1" parent="1" source="iHlx-0HnK2ta-YtyEYJR-15" target="iHlx-0HnK2ta-YtyEYJR-20">
          <mxGeometry relative="1" as="geometry" />
        </mxCell>
        <mxCell id="iHlx-0HnK2ta-YtyEYJR-15" value="充值余额支付" style="rounded=0;whiteSpace=wrap;html=1;" vertex="1" parent="1">
          <mxGeometry x="340" y="390" width="120" height="60" as="geometry" />
        </mxCell>
        <mxCell id="iHlx-0HnK2ta-YtyEYJR-33" value="" style="edgeStyle=orthogonalEdgeStyle;rounded=0;orthogonalLoop=1;jettySize=auto;html=1;" edge="1" parent="1" source="iHlx-0HnK2ta-YtyEYJR-16" target="iHlx-0HnK2ta-YtyEYJR-32">
          <mxGeometry relative="1" as="geometry" />
        </mxCell>
        <mxCell id="iHlx-0HnK2ta-YtyEYJR-16" value="充值余额支付" style="rounded=0;whiteSpace=wrap;html=1;" vertex="1" parent="1">
          <mxGeometry x="710" y="500" width="120" height="60" as="geometry" />
        </mxCell>
        <mxCell id="iHlx-0HnK2ta-YtyEYJR-37" value="" style="edgeStyle=orthogonalEdgeStyle;rounded=0;orthogonalLoop=1;jettySize=auto;html=1;" edge="1" parent="1" source="iHlx-0HnK2ta-YtyEYJR-17" target="iHlx-0HnK2ta-YtyEYJR-36">
          <mxGeometry relative="1" as="geometry" />
        </mxCell>
        <mxCell id="iHlx-0HnK2ta-YtyEYJR-17" value="信用额度支付" style="rounded=0;whiteSpace=wrap;html=1;" vertex="1" parent="1">
          <mxGeometry x="970" y="500" width="120" height="60" as="geometry" />
        </mxCell>
        <mxCell id="iHlx-0HnK2ta-YtyEYJR-23" value="" style="edgeStyle=orthogonalEdgeStyle;rounded=0;orthogonalLoop=1;jettySize=auto;html=1;" edge="1" parent="1" source="iHlx-0HnK2ta-YtyEYJR-20" target="iHlx-0HnK2ta-YtyEYJR-22">
          <mxGeometry relative="1" as="geometry" />
        </mxCell>
        <mxCell id="iHlx-0HnK2ta-YtyEYJR-24" value="够用" style="edgeLabel;html=1;align=center;verticalAlign=middle;resizable=0;points=[];" vertex="1" connectable="0" parent="iHlx-0HnK2ta-YtyEYJR-23">
          <mxGeometry x="-0.125" y="-1" relative="1" as="geometry">
            <mxPoint as="offset" />
          </mxGeometry>
        </mxCell>
        <mxCell id="iHlx-0HnK2ta-YtyEYJR-26" style="edgeStyle=orthogonalEdgeStyle;rounded=0;orthogonalLoop=1;jettySize=auto;html=1;exitX=0;exitY=0.5;exitDx=0;exitDy=0;entryX=1;entryY=0.5;entryDx=0;entryDy=0;" edge="1" parent="1" source="iHlx-0HnK2ta-YtyEYJR-20" target="iHlx-0HnK2ta-YtyEYJR-25">
          <mxGeometry relative="1" as="geometry" />
        </mxCell>
        <mxCell id="iHlx-0HnK2ta-YtyEYJR-27" value="否" style="edgeLabel;html=1;align=center;verticalAlign=middle;resizable=0;points=[];" vertex="1" connectable="0" parent="iHlx-0HnK2ta-YtyEYJR-26">
          <mxGeometry x="-0.2" relative="1" as="geometry">
            <mxPoint as="offset" />
          </mxGeometry>
        </mxCell>
        <mxCell id="iHlx-0HnK2ta-YtyEYJR-20" value="判断余额是否够用？" style="rhombus;whiteSpace=wrap;html=1;rounded=0;" vertex="1" parent="1">
          <mxGeometry x="360" y="520" width="80" height="60" as="geometry" />
        </mxCell>
        <mxCell id="iHlx-0HnK2ta-YtyEYJR-31" value="" style="edgeStyle=orthogonalEdgeStyle;rounded=0;orthogonalLoop=1;jettySize=auto;html=1;" edge="1" parent="1" source="iHlx-0HnK2ta-YtyEYJR-22" target="iHlx-0HnK2ta-YtyEYJR-30">
          <mxGeometry relative="1" as="geometry" />
        </mxCell>
        <mxCell id="iHlx-0HnK2ta-YtyEYJR-22" value="下单、扣除余额；添加记录" style="whiteSpace=wrap;html=1;rounded=0;" vertex="1" parent="1">
          <mxGeometry x="340" y="660" width="120" height="60" as="geometry" />
        </mxCell>
        <mxCell id="iHlx-0HnK2ta-YtyEYJR-28" style="edgeStyle=orthogonalEdgeStyle;rounded=0;orthogonalLoop=1;jettySize=auto;html=1;exitX=0.5;exitY=0;exitDx=0;exitDy=0;entryX=0;entryY=0.5;entryDx=0;entryDy=0;" edge="1" parent="1" source="iHlx-0HnK2ta-YtyEYJR-25" target="iHlx-0HnK2ta-YtyEYJR-15">
          <mxGeometry relative="1" as="geometry" />
        </mxCell>
        <mxCell id="iHlx-0HnK2ta-YtyEYJR-29" value="再次支付订单" style="edgeLabel;html=1;align=center;verticalAlign=middle;resizable=0;points=[];" vertex="1" connectable="0" parent="iHlx-0HnK2ta-YtyEYJR-28">
          <mxGeometry x="0.0815" y="-1" relative="1" as="geometry">
            <mxPoint as="offset" />
          </mxGeometry>
        </mxCell>
        <mxCell id="iHlx-0HnK2ta-YtyEYJR-25" value="余额充值操作" style="rounded=0;whiteSpace=wrap;html=1;" vertex="1" parent="1">
          <mxGeometry x="110" y="520" width="120" height="60" as="geometry" />
        </mxCell>
        <mxCell id="iHlx-0HnK2ta-YtyEYJR-30" value="结束" style="ellipse;whiteSpace=wrap;html=1;rounded=0;" vertex="1" parent="1">
          <mxGeometry x="370" y="800" width="60" height="60" as="geometry" />
        </mxCell>
        <mxCell id="iHlx-0HnK2ta-YtyEYJR-35" value="" style="edgeStyle=orthogonalEdgeStyle;rounded=0;orthogonalLoop=1;jettySize=auto;html=1;" edge="1" parent="1" source="iHlx-0HnK2ta-YtyEYJR-32" target="iHlx-0HnK2ta-YtyEYJR-34">
          <mxGeometry relative="1" as="geometry" />
        </mxCell>
        <mxCell id="iHlx-0HnK2ta-YtyEYJR-42" value="够" style="edgeLabel;html=1;align=center;verticalAlign=middle;resizable=0;points=[];" vertex="1" connectable="0" parent="iHlx-0HnK2ta-YtyEYJR-35">
          <mxGeometry x="-0.0222" y="1" relative="1" as="geometry">
            <mxPoint as="offset" />
          </mxGeometry>
        </mxCell>
        <mxCell id="iHlx-0HnK2ta-YtyEYJR-41" value="" style="edgeStyle=orthogonalEdgeStyle;rounded=0;orthogonalLoop=1;jettySize=auto;html=1;" edge="1" parent="1" source="iHlx-0HnK2ta-YtyEYJR-32" target="iHlx-0HnK2ta-YtyEYJR-40">
          <mxGeometry relative="1" as="geometry" />
        </mxCell>
        <mxCell id="iHlx-0HnK2ta-YtyEYJR-43" value="否" style="edgeLabel;html=1;align=center;verticalAlign=middle;resizable=0;points=[];" vertex="1" connectable="0" parent="iHlx-0HnK2ta-YtyEYJR-41">
          <mxGeometry x="-0.3" y="2" relative="1" as="geometry">
            <mxPoint as="offset" />
          </mxGeometry>
        </mxCell>
        <mxCell id="iHlx-0HnK2ta-YtyEYJR-32" value="判断是否够用？" style="rhombus;whiteSpace=wrap;html=1;rounded=0;" vertex="1" parent="1">
          <mxGeometry x="730" y="630" width="80" height="80" as="geometry" />
        </mxCell>
        <mxCell id="iHlx-0HnK2ta-YtyEYJR-54" style="edgeStyle=orthogonalEdgeStyle;rounded=0;orthogonalLoop=1;jettySize=auto;html=1;" edge="1" parent="1" source="iHlx-0HnK2ta-YtyEYJR-34" target="iHlx-0HnK2ta-YtyEYJR-53">
          <mxGeometry relative="1" as="geometry" />
        </mxCell>
        <mxCell id="iHlx-0HnK2ta-YtyEYJR-34" value="下单、扣除余额" style="whiteSpace=wrap;html=1;rounded=0;" vertex="1" parent="1">
          <mxGeometry x="710" y="800" width="120" height="60" as="geometry" />
        </mxCell>
        <mxCell id="iHlx-0HnK2ta-YtyEYJR-39" value="" style="edgeStyle=orthogonalEdgeStyle;rounded=0;orthogonalLoop=1;jettySize=auto;html=1;" edge="1" parent="1" source="iHlx-0HnK2ta-YtyEYJR-36" target="iHlx-0HnK2ta-YtyEYJR-38">
          <mxGeometry relative="1" as="geometry" />
        </mxCell>
        <mxCell id="iHlx-0HnK2ta-YtyEYJR-45" value="够" style="edgeLabel;html=1;align=center;verticalAlign=middle;resizable=0;points=[];" vertex="1" connectable="0" parent="iHlx-0HnK2ta-YtyEYJR-39">
          <mxGeometry x="-0.0444" relative="1" as="geometry">
            <mxPoint as="offset" />
          </mxGeometry>
        </mxCell>
        <mxCell id="iHlx-0HnK2ta-YtyEYJR-47" value="" style="edgeStyle=orthogonalEdgeStyle;rounded=0;orthogonalLoop=1;jettySize=auto;html=1;" edge="1" parent="1" source="iHlx-0HnK2ta-YtyEYJR-36" target="iHlx-0HnK2ta-YtyEYJR-46">
          <mxGeometry relative="1" as="geometry" />
        </mxCell>
        <mxCell id="iHlx-0HnK2ta-YtyEYJR-52" value="否" style="edgeLabel;html=1;align=center;verticalAlign=middle;resizable=0;points=[];" vertex="1" connectable="0" parent="iHlx-0HnK2ta-YtyEYJR-47">
          <mxGeometry x="-0.2" y="-2" relative="1" as="geometry">
            <mxPoint as="offset" />
          </mxGeometry>
        </mxCell>
        <mxCell id="iHlx-0HnK2ta-YtyEYJR-36" value="判断信用额度是否够用？" style="rhombus;whiteSpace=wrap;html=1;rounded=0;" vertex="1" parent="1">
          <mxGeometry x="990" y="630" width="80" height="80" as="geometry" />
        </mxCell>
        <mxCell id="iHlx-0HnK2ta-YtyEYJR-55" style="edgeStyle=orthogonalEdgeStyle;rounded=0;orthogonalLoop=1;jettySize=auto;html=1;entryX=0.5;entryY=0;entryDx=0;entryDy=0;" edge="1" parent="1" source="iHlx-0HnK2ta-YtyEYJR-38" target="iHlx-0HnK2ta-YtyEYJR-53">
          <mxGeometry relative="1" as="geometry" />
        </mxCell>
        <mxCell id="iHlx-0HnK2ta-YtyEYJR-38" value="下单、扣除信用额度" style="whiteSpace=wrap;html=1;rounded=0;" vertex="1" parent="1">
          <mxGeometry x="970" y="800" width="120" height="60" as="geometry" />
        </mxCell>
        <mxCell id="iHlx-0HnK2ta-YtyEYJR-44" style="edgeStyle=orthogonalEdgeStyle;rounded=0;orthogonalLoop=1;jettySize=auto;html=1;exitX=0.5;exitY=0;exitDx=0;exitDy=0;entryX=0;entryY=0.5;entryDx=0;entryDy=0;" edge="1" parent="1" source="iHlx-0HnK2ta-YtyEYJR-40" target="iHlx-0HnK2ta-YtyEYJR-16">
          <mxGeometry relative="1" as="geometry" />
        </mxCell>
        <mxCell id="iHlx-0HnK2ta-YtyEYJR-50" value="重新支付" style="edgeLabel;html=1;align=center;verticalAlign=middle;resizable=0;points=[];" vertex="1" connectable="0" parent="iHlx-0HnK2ta-YtyEYJR-44">
          <mxGeometry x="-0.3619" y="-2" relative="1" as="geometry">
            <mxPoint as="offset" />
          </mxGeometry>
        </mxCell>
        <mxCell id="iHlx-0HnK2ta-YtyEYJR-40" value="余额充值操作" style="whiteSpace=wrap;html=1;rounded=0;" vertex="1" parent="1">
          <mxGeometry x="550" y="640" width="120" height="60" as="geometry" />
        </mxCell>
        <mxCell id="iHlx-0HnK2ta-YtyEYJR-49" style="edgeStyle=orthogonalEdgeStyle;rounded=0;orthogonalLoop=1;jettySize=auto;html=1;exitX=0.5;exitY=0;exitDx=0;exitDy=0;entryX=1;entryY=0.5;entryDx=0;entryDy=0;" edge="1" parent="1" source="iHlx-0HnK2ta-YtyEYJR-46" target="iHlx-0HnK2ta-YtyEYJR-17">
          <mxGeometry relative="1" as="geometry" />
        </mxCell>
        <mxCell id="iHlx-0HnK2ta-YtyEYJR-51" value="重新支付" style="edgeLabel;html=1;align=center;verticalAlign=middle;resizable=0;points=[];" vertex="1" connectable="0" parent="iHlx-0HnK2ta-YtyEYJR-49">
          <mxGeometry x="-0.419" y="1" relative="1" as="geometry">
            <mxPoint as="offset" />
          </mxGeometry>
        </mxCell>
        <mxCell id="iHlx-0HnK2ta-YtyEYJR-46" value="修改信用额度总额、以及可用余额" style="whiteSpace=wrap;html=1;rounded=0;" vertex="1" parent="1">
          <mxGeometry x="1130" y="640" width="120" height="60" as="geometry" />
        </mxCell>
        <mxCell id="iHlx-0HnK2ta-YtyEYJR-53" value="结束" style="ellipse;whiteSpace=wrap;html=1;rounded=0;" vertex="1" parent="1">
          <mxGeometry x="860" y="940" width="60" height="60" as="geometry" />
        </mxCell>
      </root>
    </mxGraphModel>
  </diagram>
</mxfile>
